<svg width="28" height="28" viewBox="0 0 28 28" fill="none" xmlns="http://www.w3.org/2000/svg">
<g clip-path="url(#clip0_117_105)">
<path d="M5.28125 0.837404H22.7188C23.3468 0.836813 23.9688 0.960079 24.5492 1.20015C25.1295 1.44022 25.6568 1.79238 26.1009 2.23648C26.545 2.68058 26.8972 3.20789 27.1373 3.78825C27.3773 4.3686 27.5006 4.99061 27.5 5.61865V22.3812C27.5006 23.0092 27.3773 23.6312 27.1373 24.2116C26.8972 24.7919 26.545 25.3192 26.1009 25.7633C25.6568 26.2074 25.1295 26.5596 24.5492 26.7997C23.9688 27.0397 23.3468 27.163 22.7188 27.1624H5.28125C4.6532 27.163 4.0312 27.0397 3.45085 26.7997C2.87049 26.5596 2.34318 26.2074 1.89908 25.7633C1.45498 25.3192 1.10282 24.7919 0.862748 24.2116C0.622677 23.6312 0.49941 23.0092 0.500002 22.3812V5.61865C0.49941 4.99061 0.622677 4.3686 0.862748 3.78825C1.10282 3.20789 1.45498 2.68058 1.89908 2.23648C2.34318 1.79238 2.87049 1.44022 3.45085 1.20015C4.0312 0.960079 4.6532 0.836813 5.28125 0.837404V0.837404Z" fill="#000B1D"/>
<path d="M11.1875 22.4375C12.7408 22.4375 14 21.1783 14 19.625V16.8125H11.1875C9.6342 16.8125 8.375 18.0717 8.375 19.625C8.375 21.1783 9.6342 22.4375 11.1875 22.4375Z" fill="#0ACF83"/>
<path d="M8.375 14C8.375 12.4467 9.6342 11.1875 11.1875 11.1875H14V16.8125H11.1875C9.6342 16.8125 8.375 15.5533 8.375 14Z" fill="#A259FF"/>
<path d="M8.375 8.375C8.375 6.8217 9.6342 5.5625 11.1875 5.5625H14V11.1875H11.1875C9.6342 11.1875 8.375 9.9283 8.375 8.375Z" fill="#F24E1E"/>
<path d="M14 5.5625H16.8125C18.3658 5.5625 19.625 6.8217 19.625 8.375C19.625 9.9283 18.3658 11.1875 16.8125 11.1875H14V5.5625Z" fill="#FF7262"/>
<path d="M19.625 14C19.625 15.5533 18.3658 16.8125 16.8125 16.8125C15.2592 16.8125 14 15.5533 14 14C14 12.4467 15.2592 11.1875 16.8125 11.1875C18.3658 11.1875 19.625 12.4467 19.625 14Z" fill="#1ABCFE"/>
</g>
<defs>
<clipPath id="clip0_117_105">
<rect width="27" height="26.325" fill="white" transform="translate(0.5 0.837402)"/>
</clipPath>
</defs>
</svg>
