<svg width="43" height="45" viewBox="0 0 43 45" fill="none" xmlns="http://www.w3.org/2000/svg">
<path d="M25.1282 43.4332C23.9999 44.8541 21.7121 44.0756 21.6849 42.2613L21.2874 15.7249H39.1304C42.3623 15.7249 44.1647 19.4577 42.1551 21.9888L25.1282 43.4332Z" fill="url(#paint0_linear_123_138)"/>
<path d="M25.1282 43.4332C23.9999 44.8541 21.7121 44.0756 21.6849 42.2613L21.2874 15.7249H39.1304C42.3623 15.7249 44.1647 19.4577 42.1551 21.9888L25.1282 43.4332Z" fill="url(#paint1_linear_123_138)" fill-opacity="0.2"/>
<path d="M17.8717 0.73387C19 -0.687191 21.2878 0.0914477 21.315 1.90578L21.4892 28.4421H3.86949C0.63754 28.4421 -1.16498 24.7093 0.844746 22.1782L17.8717 0.73387Z" fill="#3ECF8E"/>
<defs>
<linearGradient id="paint0_linear_123_138" x1="21.2874" y1="21.6086" x2="37.1456" y2="28.2596" gradientUnits="userSpaceOnUse">
<stop stop-color="#249361"/>
<stop offset="1" stop-color="#3ECF8E"/>
</linearGradient>
<linearGradient id="paint1_linear_123_138" x1="14.2566" y1="11.9823" x2="21.4888" y2="25.5966" gradientUnits="userSpaceOnUse">
<stop/>
<stop offset="1" stop-opacity="0"/>
</linearGradient>
</defs>
</svg>
