<svg width="132" height="29" viewBox="0 0 132 29" fill="none" xmlns="http://www.w3.org/2000/svg">
<path d="M0.27124 18.5726C0.454129 20.2828 2.00975 23.2146 6.52425 23.2146C10.4589 23.2146 12.3504 20.7104 12.3504 18.2673C12.3504 16.0684 10.8556 14.2666 7.89698 13.6558L5.76156 13.1977C4.9381 13.045 4.38913 12.587 4.38913 11.854C4.38913 10.9989 5.24312 10.3576 6.31083 10.3576C8.01881 10.3576 8.65938 11.4875 8.78151 12.3732L12.1672 11.6097C11.9843 9.99115 10.5505 7.27319 6.2803 7.27319C3.04693 7.27319 0.667853 9.50254 0.667853 12.1899C0.667853 14.2971 1.97921 16.0379 4.87703 16.6792L6.8598 17.1373C8.01881 17.3816 8.47649 17.9313 8.47649 18.6032C8.47649 19.3972 7.83592 20.0996 6.49372 20.0996C4.72468 20.0996 3.83985 19.0002 3.74856 17.8091L0.27124 18.5726Z" fill="white"/>
<path d="M25.3149 22.7564H29.1889C29.1278 22.2373 29.0362 21.199 29.0362 20.0384V7.7312H24.9791V16.4654C24.9791 18.2061 23.9422 19.4277 22.1426 19.4277C20.2515 19.4277 19.3972 18.0839 19.3972 16.4043V7.7312H15.3403V17.2289C15.3403 20.4965 17.4144 23.1535 21.0444 23.1535C22.6302 23.1535 24.3697 22.5427 25.1931 21.1379C25.1931 21.7486 25.2539 22.451 25.3149 22.7564Z" fill="white"/>
<path d="M37.4225 28.5588V21.2906C38.1543 22.2983 39.6797 23.1229 41.7541 23.1229C45.9938 23.1229 48.8303 19.7636 48.8303 15.2132C48.8303 10.7546 46.2988 7.39526 41.9065 7.39526C39.6495 7.39526 37.9718 8.40301 37.3007 9.56354V7.73118H33.366V28.5588H37.4225ZM44.8345 15.2438C44.8345 17.9313 43.1876 19.4887 41.1132 19.4887C39.0395 19.4887 37.3617 17.9007 37.3617 15.2438C37.3617 12.5869 39.0395 11.0294 41.1132 11.0294C43.1876 11.0294 44.8345 12.5869 44.8345 15.2438Z" fill="white"/>
<path d="M51.1279 18.6642C51.1279 21.0158 53.0799 23.1841 56.283 23.1841C58.5091 23.1841 59.9429 22.1457 60.7053 20.9547C60.7053 21.5349 60.7664 22.3594 60.8579 22.7565H64.5792C64.4876 22.2373 64.3966 21.1684 64.3966 20.3744V12.984C64.3966 9.96058 62.6273 7.27319 57.8691 7.27319C53.8426 7.27319 51.6766 9.86896 51.433 12.2205L55.0321 12.984C55.1542 11.6708 56.1303 10.5409 57.8991 10.5409C59.6076 10.5409 60.4311 11.4265 60.4311 12.4953C60.4311 13.0145 60.1569 13.4421 59.3026 13.5642L55.6119 14.1139C53.1107 14.4804 51.1279 15.9768 51.1279 18.6642ZM57.1367 20.1607C55.8253 20.1607 55.1844 19.3056 55.1844 18.42C55.1844 17.2595 56.0079 16.6792 57.0454 16.5265L60.4311 16.0074V16.6792C60.4311 19.3361 58.845 20.1607 57.1367 20.1607Z" fill="white"/>
<path d="M72.4208 22.7563V20.924C73.2135 22.2066 74.7996 23.1228 76.874 23.1228C81.1448 23.1228 83.9511 19.7329 83.9511 15.1826C83.9511 10.7239 81.419 7.33408 77.0266 7.33408C74.7996 7.33408 73.1527 8.31133 72.4816 9.38014V0.645996H68.4858V22.7563H72.4208ZM79.8936 15.2131C79.8936 17.9617 78.2467 19.4886 76.1723 19.4886C74.1288 19.4886 72.4208 17.9312 72.4208 15.2131C72.4208 12.4646 74.1288 10.9682 76.1723 10.9682C78.2467 10.9682 79.8936 12.4646 79.8936 15.2131Z" fill="white"/>
<path d="M86.248 18.6642C86.248 21.0158 88.2 23.1841 91.4028 23.1841C93.6292 23.1841 95.0633 22.1457 95.8254 20.9547C95.8254 21.5349 95.8868 22.3594 95.9781 22.7565H99.6994C99.6084 22.2373 99.5168 21.1684 99.5168 20.3744V12.984C99.5168 9.96058 97.7474 7.27319 92.989 7.27319C88.9627 7.27319 86.797 9.86896 86.5531 12.2205L90.1519 12.984C90.2743 11.6708 91.2505 10.5409 93.0192 10.5409C94.7278 10.5409 95.5512 11.4265 95.5512 12.4953C95.5512 13.0145 95.2768 13.4421 94.4225 13.5642L90.732 14.1139C88.2308 14.4804 86.248 15.9768 86.248 18.6642ZM92.2571 20.1607C90.9454 20.1607 90.3046 19.3056 90.3046 18.42C90.3046 17.2595 91.128 16.6792 92.1655 16.5265L95.5512 16.0074V16.6792C95.5512 19.3361 93.9651 20.1607 92.2571 20.1607Z" fill="white"/>
<path d="M102.325 18.5726C102.507 20.2828 104.063 23.2146 108.577 23.2146C112.512 23.2146 114.403 20.7104 114.403 18.2673C114.403 16.0684 112.909 14.2666 109.95 13.6558L107.815 13.1977C106.991 13.045 106.443 12.587 106.443 11.854C106.443 10.9989 107.296 10.3576 108.364 10.3576C110.073 10.3576 110.713 11.4875 110.835 12.3732L114.221 11.6097C114.038 9.99115 112.604 7.27319 108.334 7.27319C105.1 7.27319 102.721 9.50254 102.721 12.1899C102.721 14.2971 104.032 16.0379 106.931 16.6792L108.913 17.1373C110.073 17.3816 110.53 17.9313 110.53 18.6032C110.53 19.3972 109.889 20.0996 108.547 20.0996C106.778 20.0996 105.894 19.0002 105.802 17.8091L102.325 18.5726Z" fill="white"/>
<path d="M120.565 13.5337C120.656 12.1594 121.816 10.5714 123.92 10.5714C126.238 10.5714 127.215 12.0373 127.276 13.5337H120.565ZM127.672 17.4427C127.184 18.7864 126.147 19.7331 124.256 19.7331C122.242 19.7331 120.565 18.2978 120.474 16.3128H131.21C131.21 16.2516 131.271 15.6409 131.271 15.0606C131.271 10.2354 128.496 7.27319 123.859 7.27319C120.016 7.27319 116.477 10.3881 116.477 15.1828C116.477 20.2523 120.107 23.2146 124.225 23.2146C127.916 23.2146 130.295 21.0463 131.058 18.4505L127.672 17.4427Z" fill="white"/>
</svg>
