<svg width="27" height="28" viewBox="0 0 27 28" fill="none" xmlns="http://www.w3.org/2000/svg">
<path d="M15.7781 27.272C15.0697 28.1642 13.6331 27.6754 13.6161 26.5362L13.3665 9.87378H24.5702C26.5995 9.87378 27.7313 12.2176 26.4695 13.8069L15.7781 27.272Z" fill="url(#paint0_linear_123_138)"/>
<path d="M15.7781 27.272C15.0697 28.1642 13.6331 27.6754 13.6161 26.5362L13.3665 9.87378H24.5702C26.5995 9.87378 27.7313 12.2176 26.4695 13.8069L15.7781 27.272Z" fill="url(#paint1_linear_123_138)" fill-opacity="0.2"/>
<path d="M11.2218 0.460802C11.9303 -0.431492 13.3668 0.0574207 13.3839 1.19665L13.4932 17.859H2.42968C0.400316 17.859 -0.731498 15.5152 0.530422 13.9259L11.2218 0.460802Z" fill="#3ECF8E"/>
<defs>
<linearGradient id="paint0_linear_123_138" x1="13.3665" y1="13.5682" x2="23.324" y2="17.7444" gradientUnits="userSpaceOnUse">
<stop stop-color="#249361"/>
<stop offset="1" stop-color="#3ECF8E"/>
</linearGradient>
<linearGradient id="paint1_linear_123_138" x1="8.95181" y1="7.52382" x2="13.493" y2="16.0723" gradientUnits="userSpaceOnUse">
<stop/>
<stop offset="1" stop-opacity="0"/>
</linearGradient>
</defs>
</svg>
