<svg width="27" height="28" viewBox="0 0 27 28" fill="none" xmlns="http://www.w3.org/2000/svg">
<path d="M26.9107 4.00114L14.2274 26.681C13.9655 27.1493 13.2928 27.152 13.027 26.686L0.0922252 4.00333C-0.197344 3.49553 0.236878 2.88045 0.812311 2.9833L13.5091 5.25279C13.5901 5.26726 13.6731 5.26712 13.7541 5.25236L26.1854 2.98655C26.7589 2.88202 27.1951 3.49234 26.9107 4.00114Z" fill="url(#paint0_linear_120_105)"/>
<path d="M19.5574 0.00665549L10.1715 1.8458C10.0172 1.87603 9.90297 2.00676 9.89367 2.16366L9.3163 11.915C9.30272 12.1446 9.51365 12.3229 9.73781 12.2712L12.351 11.6681C12.5955 11.6117 12.8164 11.8271 12.7662 12.0729L11.9898 15.8747C11.9376 16.1306 12.1778 16.3494 12.4277 16.2735L14.0417 15.7831C14.2919 15.7072 14.5323 15.9266 14.4794 16.1826L13.2456 22.1544C13.1684 22.5279 13.6653 22.7316 13.8725 22.4114L14.0109 22.1975L21.6591 6.9341C21.7872 6.67854 21.5663 6.38713 21.2856 6.4413L18.5958 6.96044C18.343 7.00917 18.1279 6.77377 18.1993 6.52646L19.9549 0.440406C20.0263 0.192684 19.8105 -0.0429213 19.5574 0.00665549Z" fill="url(#paint1_linear_120_105)"/>
<defs>
<linearGradient id="paint0_linear_120_105" x1="-0.223586" y1="2.17275" x2="15.5617" y2="23.6105" gradientUnits="userSpaceOnUse">
<stop stop-color="#41D1FF"/>
<stop offset="1" stop-color="#BD34FE"/>
</linearGradient>
<linearGradient id="paint1_linear_120_105" x1="12.7805" y1="0.50598" x2="15.636" y2="20.0943" gradientUnits="userSpaceOnUse">
<stop stop-color="#FFEA83"/>
<stop offset="0.0833333" stop-color="#FFDD35"/>
<stop offset="1" stop-color="#FFA800"/>
</linearGradient>
</defs>
</svg>
